<?xml version="1.0" encoding="utf-8"?>
<!-- Generator: Adobe Illustrator 18.1.1, SVG Export Plug-In . SVG Version: 6.00 Build 0)  -->
<svg version="1.1" id="Layer_1" xmlns="http://www.w3.org/2000/svg" xmlns:xlink="http://www.w3.org/1999/xlink" x="0px" y="0px"
	 viewBox="0 0 24 17" enable-background="new 0 0 24 17" xml:space="preserve">
<g>
	<path stroke="#fff" stroke-width="0.5" d="M8.3,2.8c0,0-0.2,0.3-0.3,0.8C7.7,4.1,7.5,4.9,7.4,5.8c0,0.5,0,1,0,1.5c0,0.5,0.2,1,0.6,1.4c0.8,0.9,1.7,1.8,2.5,2.8
		c0.4,0.5,0.8,1.1,1,1.8c0.1,0.2,0.1,0.3,0.2,0.5c0,0.2,0.1,0.3,0.1,0.5c0.1,0.4,0.1,0.7,0.1,1c0,1.3-0.4,2.4-0.7,3.3
		c-0.7,1.8-1.4,2.9-1.4,2.9l-0.1,0c0,0,0.1-0.3,0.2-0.9c0.1-0.5,0.4-1.3,0.5-2.2c0.2-0.9,0.4-2,0.4-3.1c0-0.3,0-0.6-0.1-0.8
		c0-0.1-0.1-0.3-0.1-0.4c0-0.1-0.1-0.3-0.1-0.4c-0.2-0.5-0.4-1.1-0.8-1.6c-0.7-1-1.5-2-2.3-2.9C7.4,8.8,7.2,8.6,7.1,8.3
		C7,7.9,7,7.6,6.9,7.3c0-0.6,0-1.1,0.1-1.6c0.2-1,0.5-1.7,0.7-2.2C8,3,8.2,2.7,8.3,2.8L8.3,2.8z"/>
</g>
<g>
	<path stroke="#fff" stroke-width="0.5" d="M4.6,6.5c0,0,0.3-0.3,0.9-0.7c0.6-0.4,1.5-0.9,2.6-1.4c1.1-0.5,2.5-0.9,4.1-1.1c0.8-0.1,1.6-0.1,2.5,0
		c0.4,0.1,0.9,0.2,1.3,0.4c0.4,0.2,0.8,0.5,1,1.1C16.9,5,17,5,17,5.2c0,0.1,0,0.3,0,0.4c0,0.3-0.1,0.5-0.2,0.7
		c-0.2,0.4-0.4,0.8-0.7,1.2c-0.6,0.7-1.2,1.2-1.9,1.6c-1.4,0.9-2.8,1.3-4,1.7C9.6,10.9,9,11,8.5,11.1c-0.5,0.1-1,0.1-1.3,0.1
		c-0.7,0-1.1-0.1-1.1-0.1l0-0.1c0,0,0.4,0,1.1-0.2c0.3-0.1,0.8-0.2,1.2-0.3c0.5-0.1,1-0.3,1.6-0.5c0.6-0.2,1.2-0.4,1.8-0.7
		c0.6-0.3,1.3-0.6,1.9-1c0.6-0.4,1.2-0.8,1.7-1.4c0.5-0.5,0.9-1.2,0.7-1.8C16,4.5,15.2,4.1,14.5,4c-0.7-0.2-1.5-0.2-2.3-0.1
		c-1.5,0.1-2.9,0.5-4,0.9C7.1,5.1,6.2,5.5,5.5,5.9C4.9,6.3,4.6,6.5,4.6,6.5L4.6,6.5z"/>
</g>
<g>
	<path stroke="#fff" stroke-width="0.5" d="M6.1,12.4c0,0,0.5-0.3,1.3-0.7c0.8-0.4,2.1-1,3.7-1.4c1.6-0.4,3.5-0.8,5.6-0.6c1,0.1,2.1,0.3,3.1,1
		c0.5,0.3,0.9,0.8,1.2,1.4c0,0.1,0.1,0.1,0.1,0.3l0,0.2c0,0.1,0.1,0.3,0,0.4c0,0.4-0.1,0.6-0.1,0.9c-0.4,1.2-1.2,2.1-2,2.8
		c-0.8,0.7-1.8,1.3-2.7,1.8c-1.9,0.9-3.8,1.4-5.4,1.6c-0.8,0.1-1.6,0.1-2.3,0.1c-0.7,0-1.3-0.1-1.7-0.2C6.4,20,6,19.9,5.8,19.8
		c-0.2-0.1-0.4-0.1-0.4-0.1l0-0.1c0,0,0.5,0.1,1.5,0.1c0.5,0,1,0,1.7-0.1c0.6-0.1,1.4-0.2,2.1-0.3c0.8-0.2,1.6-0.4,2.5-0.7
		c0.9-0.3,1.8-0.6,2.6-1.1c0.9-0.4,1.8-1,2.6-1.6c0.8-0.6,1.5-1.4,1.9-2.3c0.1-0.2,0.1-0.5,0.1-0.7c0-0.1,0-0.2,0-0.4l0-0.2
		c0,0,0-0.1,0-0.1c-0.1-0.4-0.4-0.8-0.9-1.1c-0.8-0.6-1.8-0.8-2.8-1c-2-0.2-3.9,0-5.4,0.3c-1.6,0.3-2.8,0.8-3.7,1.2
		C6.6,12.2,6.1,12.4,6.1,12.4L6.1,12.4z"/>
</g>
</svg>
